<?xml version="1.0" standalone="no"?>
<!DOCTYPE svg PUBLIC "-//W3C//DTD SVG 20010904//EN"
 "http://www.w3.org/TR/2001/REC-SVG-20010904/DTD/svg10.dtd">
<svg version="1.0" xmlns="http://www.w3.org/2000/svg"
 width="2325.000000pt" height="2325.000000pt" viewBox="0 0 2325.000000 2325.000000"
 preserveAspectRatio="xMidYMid meet">
<metadata>
Created by potrace 1.14, written by Peter Selinger 2001-2017
</metadata>
<g transform="translate(0.000000,2325.000000) scale(0.100000,-0.100000)"
fill="#000000" stroke="none">
<path d="M4129 22818 c0 -7 -1 -681 -2 -1498 l-2 -1485 -907 0 -906 0 -13 60
c-7 33 -14 65 -14 70 -1 6 -4 17 -7 25 -14 33 -32 95 -30 103 1 4 -3 7 -10 7
-6 0 -9 3 -5 6 14 14 -83 177 -149 250 -31 34 -107 81 -149 93 -111 31 -208
-1 -304 -99 -36 -37 -77 -89 -91 -116 -14 -27 -28 -50 -32 -52 -5 -2 -8 -7 -8
-12 0 -4 -8 -25 -17 -46 -9 -22 -18 -43 -19 -49 -1 -5 -9 -30 -17 -55 -17 -52
-27 -93 -34 -135 -2 -16 -6 -36 -8 -43 -8 -24 -19 -164 -19 -252 0 -99 10
-208 23 -264 6 -22 8 -43 5 -47 -2 -4 0 -10 6 -14 5 -3 10 -16 10 -27 0 -24
32 -121 61 -185 10 -24 19 -45 19 -48 0 -3 22 -39 49 -79 54 -80 96 -120 168
-163 43 -25 57 -28 139 -28 l91 0 39 -75 c21 -41 64 -122 96 -179 32 -58 58
-106 58 -107 0 -2 13 -25 28 -51 16 -27 53 -94 82 -148 29 -55 61 -114 70
-130 25 -45 101 -184 122 -225 10 -19 22 -42 28 -50 5 -8 37 -67 71 -130 34
-63 73 -135 87 -160 14 -25 25 -47 25 -50 -1 -3 4 -12 11 -20 7 -8 24 -38 39
-66 35 -69 95 -181 175 -324 47 -85 247 -455 260 -480 7 -14 23 -43 35 -65 13
-22 41 -74 64 -115 22 -41 56 -102 74 -135 56 -102 86 -158 117 -215 17 -30
51 -93 76 -140 26 -47 54 -101 64 -120 9 -19 20 -36 25 -38 4 -2 7 -7 7 -12 0
-4 20 -43 43 -86 24 -44 63 -115 87 -159 91 -170 113 -211 130 -240 10 -16 34
-61 55 -100 21 -38 50 -92 65 -120 15 -27 44 -81 65 -120 21 -38 46 -83 55
-100 21 -35 82 -149 119 -220 14 -27 31 -53 36 -57 6 -4 6 -8 1 -8 -5 0 -3 -8
6 -17 8 -10 25 -40 39 -68 13 -27 26 -52 29 -55 3 -3 16 -25 29 -50 13 -25 37
-70 54 -100 16 -30 45 -83 62 -116 18 -34 40 -72 48 -85 8 -13 35 -62 59 -109
54 -101 102 -190 133 -245 20 -36 64 -117 135 -247 14 -26 42 -80 64 -120 21
-40 42 -77 46 -83 4 -5 33 -59 65 -120 32 -60 61 -114 65 -120 8 -10 104 -190
124 -232 6 -13 14 -23 19 -23 4 0 7 -5 7 -10 0 -15 142 -273 154 -282 6 -4 7
-8 2 -8 -5 0 -4 -6 2 -12 5 -7 30 -51 54 -98 47 -89 89 -164 118 -215 9 -16
39 -70 65 -120 26 -49 65 -121 86 -158 22 -38 39 -73 39 -78 0 -5 5 -9 10 -9
6 0 10 -8 10 -18 0 -10 4 -22 10 -28 5 -5 22 -34 38 -64 43 -83 104 -194 112
-205 4 -5 33 -59 65 -120 32 -60 61 -114 65 -120 4 -5 31 -55 60 -110 29 -55
58 -109 64 -120 6 -11 16 -23 21 -27 6 -4 6 -8 2 -8 -5 0 0 -12 10 -27 11 -16
28 -47 38 -70 11 -24 23 -43 28 -43 4 0 7 -5 7 -11 0 -6 9 -24 21 -40 11 -16
17 -29 14 -29 -3 0 3 -13 14 -29 12 -16 21 -32 21 -35 0 -3 13 -28 30 -56 16
-27 26 -50 22 -50 -4 0 -2 -4 4 -8 6 -4 34 -52 64 -107 83 -157 120 -226 156
-288 19 -32 34 -60 34 -63 0 -3 27 -52 60 -111 33 -58 60 -108 60 -110 0 -3 9
-17 20 -33 11 -15 17 -30 13 -34 -3 -3 0 -6 7 -6 7 0 10 -3 7 -7 -4 -3 -1 -13
7 -22 7 -9 36 -60 64 -113 28 -53 76 -142 107 -197 30 -54 55 -104 55 -110 0
-6 3 -11 8 -11 4 0 15 -17 24 -37 10 -21 30 -60 46 -88 16 -27 42 -75 58 -105
16 -30 31 -57 34 -60 3 -3 15 -25 27 -50 12 -25 41 -79 64 -120 22 -41 58
-106 78 -145 20 -38 44 -81 53 -95 13 -21 104 -189 268 -495 18 -33 52 -95 76
-137 24 -43 44 -80 44 -82 0 -3 13 -28 29 -55 17 -27 55 -99 87 -158 31 -59
62 -114 67 -122 6 -7 12 -19 13 -27 1 -7 11 -26 22 -41 10 -15 42 -71 69 -123
28 -52 62 -115 75 -140 50 -89 151 -275 180 -330 10 -19 23 -42 28 -50 5 -8
37 -67 71 -130 34 -63 75 -140 92 -170 16 -30 39 -73 51 -95 11 -22 23 -42 26
-45 3 -3 13 -21 22 -40 10 -19 35 -66 56 -105 21 -38 62 -115 91 -170 30 -55
63 -112 73 -128 11 -15 16 -27 13 -27 -3 0 3 -13 14 -29 12 -16 21 -33 21 -38
0 -4 9 -19 20 -33 11 -14 20 -33 20 -42 0 -10 3 -18 8 -18 4 0 12 -10 18 -23
6 -12 55 -103 109 -202 54 -99 105 -193 113 -210 8 -16 24 -42 34 -58 11 -15
16 -27 13 -27 -3 0 2 -12 13 -28 10 -15 26 -40 34 -57 8 -16 24 -46 35 -65 11
-19 44 -80 73 -135 30 -55 66 -121 80 -146 14 -26 53 -98 86 -160 85 -157 113
-208 137 -249 12 -19 22 -41 23 -48 2 -8 8 -21 16 -30 14 -19 16 -21 78 -137
23 -44 55 -102 70 -130 30 -54 83 -153 121 -225 13 -25 26 -47 29 -50 3 -3 16
-25 28 -50 22 -42 78 -145 127 -235 12 -22 40 -74 61 -115 22 -41 42 -77 47
-78 4 -2 7 -8 7 -14 0 -6 10 -27 22 -47 13 -20 23 -38 23 -41 0 -3 12 -25 27
-50 29 -50 180 -328 259 -477 29 -54 59 -106 67 -115 8 -10 11 -18 6 -18 -5 0
-4 -4 1 -8 6 -4 17 -21 26 -38 9 -17 40 -75 69 -129 29 -54 60 -112 69 -129 9
-17 18 -33 21 -36 3 -3 19 -32 36 -65 17 -33 56 -106 87 -163 32 -56 57 -107
57 -112 0 -4 3 -10 8 -12 4 -2 22 -31 41 -66 31 -59 32 -66 22 -105 -52 -190
-59 -467 -16 -676 22 -112 84 -271 137 -352 49 -77 126 -151 186 -180 72 -35
169 -33 245 6 67 33 150 117 196 198 38 66 93 198 86 205 -3 3 -1 10 4 16 10
12 46 194 52 256 13 149 -2 404 -29 495 -7 23 -4 38 11 65 11 19 35 64 54 100
19 36 43 79 52 95 10 17 43 78 73 135 31 58 67 125 80 150 14 25 40 72 58 105
18 33 41 74 50 90 9 17 36 66 60 110 23 44 50 94 60 110 10 17 33 59 52 95 40
73 169 312 206 380 13 25 34 63 45 85 12 22 23 42 26 45 4 3 24 40 46 82 22
43 43 78 46 78 3 0 6 6 6 13 1 6 38 80 83 162 45 83 95 173 110 200 15 28 48
88 74 134 25 46 46 87 46 91 0 4 7 13 15 20 9 7 13 15 11 18 -3 3 3 17 12 31
10 14 27 44 37 66 11 22 22 42 25 45 3 3 17 28 32 55 29 56 53 101 138 255 31
58 77 141 100 185 24 44 61 112 82 150 21 39 49 90 61 115 12 25 24 47 27 50
3 3 15 23 27 45 11 22 35 67 53 100 70 129 104 192 137 249 18 32 40 72 48 90
8 17 28 54 43 81 15 28 46 84 68 125 46 84 154 282 192 350 30 55 68 125 157
290 85 156 163 300 275 505 15 28 42 77 60 110 42 79 96 178 130 240 115 210
140 257 140 265 0 4 4 10 9 12 5 2 11 10 13 18 2 8 6 17 9 20 3 3 32 55 65
115 32 61 68 128 81 150 12 22 26 47 29 55 4 8 12 21 18 29 5 7 11 19 12 27 1
7 12 27 23 43 12 16 21 31 21 34 0 2 20 40 43 83 24 44 61 111 82 149 20 39
48 88 60 110 40 71 81 148 135 250 29 55 56 105 60 110 4 6 27 46 50 90 24 44
56 103 71 130 15 28 39 70 52 95 45 85 105 195 181 334 42 76 76 142 76 147 0
4 6 14 13 21 6 7 26 40 42 73 17 33 36 66 43 73 6 7 12 17 12 22 0 4 60 117
133 251 116 213 168 307 236 434 9 17 18 32 21 35 3 3 21 37 40 75 19 39 37
72 40 75 3 3 18 30 33 60 15 30 36 69 45 85 10 17 42 75 72 130 30 55 67 123
83 150 15 28 30 58 34 68 3 9 9 17 14 17 5 0 9 7 9 15 0 9 10 32 23 53 13 20
52 91 87 157 34 66 66 125 70 130 5 6 26 44 48 85 42 80 84 156 112 205 9 17
39 71 65 120 47 89 78 145 134 248 16 28 46 84 66 122 21 39 49 90 63 115 14
25 35 63 47 85 51 93 97 179 131 243 20 37 62 114 94 172 32 58 72 132 90 165
18 33 45 83 60 110 15 28 44 82 65 120 35 66 51 94 120 220 15 28 42 77 60
110 18 33 51 96 75 140 24 44 54 97 67 117 12 21 23 40 23 42 0 3 24 49 53
103 30 54 71 130 92 168 21 39 45 84 55 100 10 17 37 66 60 110 23 44 55 103
70 130 59 107 81 148 132 243 28 53 60 111 69 127 10 17 26 46 36 65 9 19 22
38 27 42 6 4 7 8 2 8 -5 0 -4 6 1 13 10 12 31 49 106 187 23 41 51 93 64 115
12 22 41 76 63 119 55 103 63 118 77 136 6 8 11 17 10 20 0 3 11 25 25 50 15
25 32 57 39 73 7 15 16 27 21 27 5 0 7 4 4 8 -3 5 1 18 9 30 9 11 31 51 51 89
35 66 67 124 124 228 15 28 44 82 65 120 21 39 60 110 87 159 27 49 54 98 59
110 6 12 25 48 44 81 19 33 40 72 46 88 6 15 14 27 18 27 3 0 13 15 20 33 8
17 39 77 69 132 123 224 144 261 160 295 9 19 20 37 23 40 3 3 12 19 20 35 15
30 76 143 130 240 15 28 36 66 46 85 9 19 33 62 51 95 19 33 50 89 69 125 19
36 44 83 56 105 13 22 45 81 72 130 26 50 56 104 65 120 9 17 41 75 70 130 29
55 62 112 72 128 11 15 16 27 12 27 -3 0 -2 6 4 13 11 13 28 43 84 147 39 71
100 183 104 188 1 2 19 -8 41 -22 87 -58 193 -67 281 -25 82 40 173 142 235
264 28 57 76 203 83 254 2 18 6 36 9 40 25 42 26 518 1 560 -2 3 -7 24 -10 46
-19 120 -112 324 -186 407 -102 114 -209 154 -324 121 -131 -39 -209 -130
-326 -383 -6 -13 -129 -15 -1015 -15 -663 0 -1009 3 -1011 10 -2 6 -6 21 -8
35 -3 14 -5 25 -6 25 -1 0 -3 7 -5 15 -6 31 -57 188 -81 250 -35 88 -97 212
-134 266 -16 25 -30 47 -30 50 0 7 -76 99 -120 144 -49 51 -145 130 -158 130
-6 0 -12 4 -14 8 -6 14 -112 61 -178 79 -91 24 -297 24 -405 -1 -340 -78 -639
-323 -881 -721 l-31 -50 24 -75 c27 -85 33 -104 40 -140 l5 -25 -861 0 c-474
0 -861 2 -861 3 0 2 7 19 15 38 8 19 21 49 29 67 16 37 53 120 86 192 13 28
24 55 25 60 2 6 19 46 40 90 20 44 48 106 61 138 14 32 38 87 54 122 16 35 40
90 54 122 23 56 69 159 104 233 9 19 17 37 17 40 3 10 27 67 49 115 13 28 56
124 96 215 40 91 80 181 88 200 9 19 16 37 17 40 1 3 11 25 22 50 11 25 30 68
42 95 12 28 30 66 39 85 9 19 17 37 17 40 1 5 8 22 51 115 10 22 19 42 19 45
2 8 14 34 155 350 72 162 133 300 134 305 1 6 14 35 30 65 15 30 27 55 25 55
-1 0 8 22 19 49 12 27 22 53 22 58 0 6 -136 8 -347 6 -322 -3 -351 -5 -388
-23 -44 -21 -116 -90 -139 -132 -26 -51 -72 -147 -95 -203 -13 -30 -30 -67
-37 -82 -8 -14 -14 -33 -14 -42 0 -9 -4 -16 -10 -16 -5 0 -10 -6 -10 -12 0
-11 -57 -150 -91 -223 -20 -44 -230 -531 -233 -540 -1 -5 -9 -26 -18 -45 -8
-19 -55 -127 -103 -240 -48 -113 -96 -225 -107 -250 -11 -25 -26 -58 -33 -75
-7 -16 -22 -50 -32 -75 -91 -206 -223 -519 -223 -528 0 -7 -4 -12 -10 -12 -5
0 -10 -6 -10 -14 0 -15 -75 -191 -118 -275 -39 -78 -103 -138 -166 -156 -45
-13 -137 -20 -231 -16 l-31 1 1 1480 0 1480 -357 0 c-197 0 -358 -3 -359 -7 0
-5 -1 -678 -2 -1498 l-2 -1490 -353 0 c-195 0 -357 2 -361 5 -7 4 -49 136 -65
202 -8 30 -78 201 -112 273 -135 281 -311 465 -503 526 -93 30 -242 34 -338 9
-87 -23 -181 -68 -249 -121 -52 -40 -170 -160 -211 -215 -41 -54 -149 -218
-174 -264 -13 -25 -27 -47 -31 -50 -3 -3 -9 -16 -13 -30 -3 -14 -15 -36 -25
-50 l-20 -25 1 30 c0 17 -2 46 -5 65 -3 19 -8 62 -11 95 -3 33 -7 76 -10 95
-3 19 -8 53 -10 75 -15 127 -26 178 -50 224 -23 46 -41 65 -81 88 -15 8 -87
11 -235 10 l-214 -2 -2 -455 c0 -250 -1 -462 -2 -470 -1 -13 -49 -15 -371 -15
-321 0 -371 2 -374 15 -2 8 -10 40 -17 70 -7 30 -17 61 -22 67 -5 7 -7 19 -4
27 3 8 3 16 -2 18 -4 2 -17 35 -30 73 -33 100 -120 277 -182 370 -96 144 -251
282 -382 339 -126 56 -328 69 -498 32 -131 -28 -305 -107 -414 -188 -31 -23
-182 -155 -192 -168 -6 -8 -27 -32 -46 -53 -19 -20 -46 -51 -59 -68 -12 -17
-28 -36 -35 -44 -34 -36 -163 -240 -163 -257 0 -11 5 -28 11 -40 6 -11 12 -30
15 -42 2 -13 13 -51 24 -86 11 -34 20 -63 20 -64 0 -4 -1710 0 -1714 5 -3 3
19 62 50 130 31 68 57 129 58 134 2 6 15 37 30 70 15 33 36 80 47 105 11 25
27 58 34 73 8 16 15 35 15 43 0 8 5 14 12 14 6 0 9 3 6 6 -4 3 10 40 29 82 55
122 56 123 182 410 67 150 121 275 121 277 0 2 18 43 40 90 22 47 40 88 40 90
0 2 18 43 40 90 22 47 40 88 40 91 0 2 13 32 29 66 16 35 70 158 121 273 50
116 100 228 110 250 10 22 26 58 35 80 10 22 27 60 39 85 11 25 21 47 22 50 1
9 21 53 58 133 20 43 36 80 36 83 0 2 16 38 35 80 19 41 35 77 35 80 0 2 11
27 24 55 l25 50 -352 -3 c-347 -3 -353 -3 -400 -27 -64 -32 -116 -93 -171
-204 -25 -51 -46 -96 -46 -100 0 -3 -11 -30 -24 -59 -59 -129 -74 -167 -68
-172 3 -3 0 -6 -6 -6 -7 0 -12 -5 -12 -10 0 -6 -7 -27 -17 -48 -9 -20 -17 -39
-18 -42 -1 -3 -7 -16 -13 -30 -6 -14 -24 -56 -41 -95 -16 -38 -37 -88 -47
-110 -9 -22 -18 -42 -19 -45 -2 -6 -9 -23 -59 -139 -21 -47 -43 -99 -50 -115
-7 -17 -24 -55 -37 -85 -13 -30 -24 -57 -24 -60 -1 -3 -11 -26 -24 -51 -13
-25 -24 -47 -24 -50 1 -8 -26 -72 -75 -180 -11 -25 -39 -90 -62 -145 -23 -55
-47 -113 -54 -130 -8 -16 -20 -46 -29 -65 -8 -19 -26 -61 -41 -93 -14 -32 -26
-60 -26 -62 0 -2 -13 -33 -29 -67 -15 -35 -58 -133 -94 -218 -36 -85 -76 -177
-88 -205 -12 -27 -23 -52 -24 -55 -1 -3 -7 -18 -13 -33 -63 -152 -125 -221
-219 -246 -46 -12 -223 -19 -239 -8 -8 4 -11 442 -12 1459 0 799 -1 1463 -1
1476 l-1 22 -355 0 c-277 0 -355 -3 -356 -12z m4697 -2937 c35 -17 64 -34 64
-38 0 -4 -108 -8 -240 -8 -132 -1 -240 2 -240 6 0 14 96 53 155 64 98 19 188
10 261 -24z m2980 19 c33 -11 114 -55 114 -63 0 -1 -108 -2 -239 -2 -257 0
-260 0 -156 46 85 38 200 45 281 19z m6339 5 c39 -10 98 -40 112 -57 10 -11
-29 -13 -228 -13 -131 0 -239 3 -239 7 0 19 96 55 170 65 25 3 46 7 48 8 6 5
105 -3 137 -10z m-14024 -614 c4 0 7 -790 7 -1753 0 -964 1 -1759 1 -1765 1
-10 79 -13 356 -13 277 0 355 3 356 13 0 6 1 707 1 1555 l1 1544 166 -4 c187
-4 219 -14 279 -83 26 -29 72 -103 77 -125 1 -3 6 -16 12 -30 6 -14 23 -54 38
-90 15 -36 33 -78 40 -95 8 -16 30 -70 50 -120 35 -85 46 -111 79 -188 8 -18
29 -68 47 -112 17 -44 39 -98 49 -120 10 -22 33 -76 50 -120 18 -44 37 -91 43
-105 6 -14 11 -27 12 -30 1 -3 11 -27 23 -53 12 -27 22 -51 22 -53 0 -5 38
-92 51 -116 5 -10 9 -25 9 -33 0 -8 4 -15 10 -15 5 0 9 -3 7 -8 -1 -4 5 -25
14 -47 58 -139 73 -175 91 -215 11 -25 26 -61 34 -80 7 -19 29 -73 49 -120 20
-47 42 -101 50 -121 7 -19 22 -55 33 -80 11 -24 52 -123 92 -219 39 -96 78
-188 85 -205 8 -16 26 -59 40 -95 15 -36 34 -81 42 -100 8 -19 18 -44 23 -55
60 -160 125 -244 202 -263 43 -11 728 -18 728 -8 0 3 -6 18 -43 106 -6 14 -11
27 -11 30 -1 6 -36 91 -92 226 -19 45 -34 83 -34 86 0 3 -10 27 -22 54 -12 27
-22 51 -23 54 0 3 -8 26 -19 50 -10 25 -27 68 -39 95 -11 28 -27 65 -35 84 -8
18 -15 39 -16 45 -2 6 -8 22 -14 36 -27 58 -234 576 -235 588 0 6 -4 12 -9 12
-4 0 -7 3 -6 8 1 4 -4 18 -9 32 -6 14 -43 106 -82 205 -40 99 -79 194 -87 212
-7 17 -14 34 -14 37 0 3 -9 25 -19 49 -20 44 -190 465 -195 482 -2 6 -8 21
-13 35 -25 57 -167 409 -183 450 -38 97 -173 428 -196 479 -14 29 -26 58 -27
64 -1 9 414 12 1563 13 861 0 1570 -2 1575 -5 6 -3 11 -17 12 -31 12 -143 16
-233 17 -400 1 -107 0 -202 -2 -211 -3 -12 -17 -16 -61 -18 -32 -1 -66 -3 -77
-5 -10 -2 -50 -7 -89 -10 -38 -4 -88 -11 -110 -16 -22 -5 -74 -16 -115 -25
-356 -79 -686 -274 -860 -510 -25 -33 -47 -62 -50 -65 -19 -18 -129 -214 -136
-242 -1 -5 -3 -10 -4 -13 -1 -3 -3 -9 -4 -15 0 -5 -7 -15 -13 -22 -7 -6 -13
-22 -13 -33 0 -12 -3 -25 -7 -29 -5 -4 -9 -12 -9 -17 -1 -5 -3 -11 -4 -14 -1
-3 -4 -9 -5 -15 -1 -5 -3 -11 -5 -12 -4 -6 -46 -203 -54 -261 -27 -180 -23
-537 9 -712 3 -16 10 -59 16 -95 6 -36 15 -76 20 -90 5 -14 10 -36 13 -50 2
-14 18 -65 36 -115 18 -49 34 -98 37 -107 3 -10 9 -18 14 -18 5 0 9 -7 9 -15
0 -9 18 -46 41 -83 110 -182 249 -293 423 -339 83 -23 260 -22 346 1 86 22
179 66 256 121 61 44 183 160 223 213 11 15 38 50 59 77 38 50 140 203 159
239 16 30 22 10 48 -169 18 -122 48 -261 66 -303 46 -107 90 -124 319 -120
l162 3 -1 1705 c-1 938 -3 1732 -4 1765 l-2 60 327 0 c321 1 327 1 330 -20 2
-11 3 -1175 2 -2586 l0 -2567 328 1 328 0 1 261 c1 144 1 264 0 268 -2 19 -3
117 -2 793 l1 730 55 -85 c68 -107 85 -128 165 -208 68 -68 138 -118 206 -147
134 -57 321 -62 469 -13 154 50 295 161 426 334 38 51 69 96 69 100 0 4 6 15
14 23 49 57 254 521 229 521 -3 0 -1 6 4 13 6 6 14 26 18 42 12 45 12 45 15
48 1 1 3 9 5 17 1 8 13 51 24 95 12 44 24 93 26 109 2 15 7 36 10 46 8 25 14
57 20 104 3 21 7 41 10 46 2 4 7 26 10 49 3 24 7 52 10 64 3 12 7 42 10 67 4
41 7 67 20 155 39 269 50 978 21 1355 -2 25 -7 86 -10 135 -4 50 -9 97 -11
105 -2 8 -7 44 -9 80 l-6 66 308 -1 307 0 2 -1745 c1 -960 2 -1755 2 -1767 l1
-23 355 0 c195 0 355 3 356 8 1 4 2 702 3 1552 l1 1545 165 0 c184 0 212 -8
278 -76 26 -27 102 -164 102 -185 0 -3 7 -20 15 -37 20 -44 175 -414 189 -454
7 -18 15 -36 19 -39 4 -4 7 -16 7 -26 0 -10 5 -18 10 -18 6 0 9 -3 8 -7 0 -5
3 -17 7 -28 5 -11 37 -90 73 -175 35 -85 75 -180 87 -210 13 -30 37 -89 54
-130 18 -41 34 -79 35 -85 2 -5 11 -28 21 -50 18 -42 37 -87 40 -95 1 -3 7
-16 12 -30 52 -119 75 -177 76 -187 0 -7 4 -13 9 -13 4 0 8 -6 8 -12 0 -7 28
-80 63 -163 80 -190 80 -189 82 -195 1 -3 6 -16 12 -30 6 -14 27 -65 48 -115
20 -49 42 -103 50 -120 7 -16 25 -59 40 -95 15 -36 33 -78 40 -95 7 -16 35
-84 61 -150 70 -174 110 -231 187 -265 39 -17 71 -19 395 -20 193 0 352 2 352
4 0 3 -5 17 -12 33 -6 15 -12 33 -14 38 -1 6 -28 71 -59 145 -31 74 -60 146
-65 160 -4 14 -16 43 -26 65 -10 22 -19 45 -20 50 -1 6 -19 48 -39 95 -20 47
-38 90 -39 95 -2 6 -7 19 -11 30 -48 116 -231 573 -247 615 -11 30 -24 59 -29
64 -5 6 -9 15 -9 22 0 6 -8 29 -17 50 -9 22 -17 41 -18 44 -3 10 -26 65 -35
85 -5 11 -19 45 -30 75 -33 84 -37 92 -53 130 -8 19 -32 78 -52 130 -21 52
-46 114 -56 137 -11 23 -19 46 -19 51 0 5 -6 22 -14 38 -8 16 -49 115 -90 219
-42 105 -81 200 -86 213 -25 57 -31 71 -50 122 -11 30 -25 64 -30 75 -17 37
-102 250 -104 260 -1 6 -4 15 -8 20 -3 6 -38 90 -77 189 -40 98 -83 200 -96
227 -14 26 -25 50 -25 51 0 8 3156 3 3161 -4 3 -5 5 -33 5 -63 -1 -30 1 -55 4
-55 3 0 7 -119 8 -265 3 -216 1 -266 -10 -269 -7 -3 -56 -7 -108 -10 -159 -10
-324 -42 -485 -93 -374 -120 -610 -299 -813 -618 -7 -11 -23 -41 -36 -67 -12
-26 -29 -54 -36 -63 -7 -8 -10 -15 -6 -15 4 0 -2 -17 -13 -39 -36 -69 -95
-287 -106 -391 -16 -145 -19 -195 -19 -325 1 -130 6 -227 19 -350 6 -55 17
-130 21 -136 2 -3 6 -21 9 -40 7 -43 64 -247 75 -268 4 -9 23 -47 40 -86 18
-38 49 -96 71 -127 21 -32 39 -60 39 -63 0 -10 105 -108 154 -144 73 -52 147
-86 237 -107 42 -10 198 -11 257 -2 59 9 154 39 207 66 109 54 268 195 358
317 28 39 54 72 58 75 3 3 38 54 77 115 40 60 72 107 73 105 0 -3 2 -14 5 -25
2 -11 6 -38 9 -60 3 -22 8 -47 10 -55 3 -8 7 -37 10 -63 3 -26 10 -59 15 -71
5 -13 6 -26 4 -29 -8 -7 34 -169 52 -206 20 -40 67 -78 112 -91 20 -5 110 -10
200 -10 l162 0 0 63 c5 1407 -2 3411 -12 3458 -3 11 160 14 930 14 514 0 935
-2 937 -6 3 -3 7 -33 10 -65 3 -32 9 -72 12 -89 4 -16 8 -39 9 -50 2 -11 8
-43 14 -72 12 -56 17 -40 -70 -198 -15 -27 -41 -75 -57 -105 -54 -98 -107
-194 -130 -235 -12 -22 -29 -53 -37 -70 -33 -66 -106 -198 -117 -211 -6 -8 -8
-14 -3 -14 5 0 4 -4 -2 -8 -6 -4 -21 -27 -33 -52 -13 -25 -28 -54 -34 -65 -7
-11 -52 -94 -101 -185 -49 -91 -100 -181 -112 -201 -13 -20 -21 -39 -18 -41 2
-3 -2 -11 -11 -18 -8 -7 -15 -16 -15 -20 0 -4 -47 -93 -105 -199 -58 -106
-105 -196 -105 -201 0 -4 -4 -10 -8 -12 -5 -1 -20 -25 -33 -53 -14 -27 -51
-96 -82 -153 -31 -56 -57 -107 -57 -112 0 -6 -4 -10 -10 -10 -5 0 -10 -4 -10
-10 0 -8 -50 -103 -145 -275 -72 -132 -88 -161 -116 -212 -18 -32 -36 -64 -42
-70 -5 -7 -6 -13 -2 -13 5 0 1 -8 -7 -17 -8 -10 -25 -38 -37 -63 -13 -25 -37
-70 -54 -100 -16 -30 -43 -79 -58 -107 -16 -29 -42 -77 -58 -105 -15 -29 -43
-80 -61 -113 -41 -73 -89 -162 -128 -235 -16 -30 -39 -72 -50 -92 -12 -20 -46
-83 -77 -140 -31 -57 -60 -110 -65 -118 -8 -13 -159 -291 -293 -540 -22 -41
-60 -110 -83 -154 -24 -43 -44 -82 -44 -87 0 -5 -5 -9 -12 -9 -6 0 -8 -3 -5
-6 4 -4 -2 -19 -11 -33 -10 -14 -23 -37 -30 -51 -7 -14 -27 -52 -46 -85 -61
-110 -103 -189 -139 -258 -19 -37 -39 -73 -45 -80 -5 -7 -35 -61 -67 -122 -32
-60 -67 -126 -78 -145 -11 -19 -35 -64 -55 -100 -19 -36 -45 -84 -58 -108 -13
-23 -47 -86 -75 -140 -29 -53 -55 -101 -59 -107 -4 -5 -31 -55 -60 -110 -29
-55 -57 -105 -62 -111 -5 -7 -27 -47 -49 -90 -79 -152 -104 -198 -116 -212 -7
-7 -13 -17 -13 -21 0 -5 -45 -90 -100 -190 -55 -100 -100 -186 -100 -191 0 -6
-3 -10 -7 -10 -5 0 -13 -10 -18 -23 -15 -32 -104 -196 -208 -387 -128 -234
-142 -258 -174 -320 -16 -30 -43 -80 -60 -110 -17 -30 -61 -111 -98 -180 -101
-187 -200 -368 -222 -405 -6 -11 -21 -40 -34 -65 -13 -25 -48 -90 -79 -145
-30 -55 -66 -122 -80 -150 -14 -27 -27 -52 -31 -55 -3 -3 -15 -23 -26 -46 -12
-22 -60 -112 -108 -200 -93 -170 -107 -195 -236 -434 -46 -85 -87 -156 -91
-158 -4 -2 -8 -12 -8 -23 0 -10 -3 -19 -8 -19 -4 0 -13 -15 -21 -32 -8 -18
-25 -50 -38 -70 -13 -21 -20 -38 -16 -38 5 0 4 -4 -2 -8 -5 -4 -20 -25 -32
-47 -58 -109 -82 -153 -100 -185 -26 -47 -128 -234 -179 -329 -22 -42 -56
-103 -73 -136 -18 -33 -43 -78 -54 -100 -12 -22 -24 -42 -27 -45 -3 -3 -15
-25 -27 -50 -12 -25 -40 -76 -61 -115 -21 -38 -56 -101 -77 -140 -21 -38 -45
-83 -55 -100 -10 -16 -36 -65 -59 -107 -105 -197 -124 -234 -131 -243 -7 -9
-74 -132 -108 -200 -8 -16 -24 -42 -34 -57 -11 -16 -17 -28 -13 -28 3 0 -6
-17 -20 -37 -14 -21 -25 -43 -25 -49 0 -7 -3 -14 -7 -16 -5 -1 -25 -37 -47
-78 -65 -127 -99 -185 -110 -192 -6 -4 -7 -8 -2 -8 5 0 4 -6 -1 -12 -6 -7 -28
-47 -50 -88 -39 -73 -91 -170 -141 -260 -155 -284 -262 -483 -262 -491 0 -5
-4 -9 -8 -9 -5 0 -16 -17 -25 -37 -9 -21 -32 -67 -52 -103 -58 -102 -95 -169
-135 -245 -20 -38 -50 -92 -65 -120 -15 -27 -45 -84 -68 -125 -23 -41 -52 -95
-65 -120 -13 -25 -31 -58 -41 -75 -10 -16 -39 -70 -66 -120 -26 -49 -68 -125
-92 -169 -23 -43 -43 -82 -43 -86 0 -4 -7 -13 -15 -20 -9 -7 -14 -15 -11 -17
2 -3 -16 -38 -40 -79 -24 -41 -44 -77 -44 -80 0 -2 -20 -39 -44 -82 -24 -42
-59 -106 -78 -142 -20 -36 -47 -85 -60 -110 -14 -25 -47 -85 -73 -135 -26 -49
-51 -94 -55 -100 -4 -5 -33 -59 -65 -120 -76 -144 -79 -149 -86 -155 -3 -3
-15 -25 -27 -50 -12 -25 -34 -67 -50 -95 -16 -27 -50 -90 -77 -140 -26 -49
-65 -120 -86 -157 -21 -38 -35 -68 -31 -68 4 0 2 -4 -4 -8 -6 -4 -25 -35 -42
-69 -18 -34 -36 -64 -42 -68 -5 -3 -10 -15 -10 -25 0 -10 -3 -20 -7 -22 -5 -1
-17 -21 -29 -43 -11 -22 -38 -71 -59 -110 -21 -38 -50 -92 -64 -120 -13 -27
-27 -52 -30 -55 -3 -3 -20 -32 -37 -65 -17 -33 -53 -100 -81 -150 -28 -49 -72
-130 -98 -180 -26 -49 -58 -108 -70 -130 -68 -125 -85 -156 -120 -220 -21 -38
-49 -89 -62 -112 l-25 -42 -26 25 c-44 40 -112 68 -179 72 -68 5 -119 -9 -176
-46 -22 -15 -41 -21 -46 -16 -8 8 -34 57 -120 219 -14 28 -29 52 -33 53 -5 2
-8 8 -8 12 0 5 -38 78 -84 162 -46 84 -98 180 -116 213 -18 33 -42 78 -55 100
-12 22 -41 76 -65 120 -24 44 -64 118 -90 165 -26 47 -69 126 -95 175 -26 50
-63 116 -81 148 -19 32 -34 61 -34 63 0 3 -9 19 -21 35 -11 16 -17 29 -13 29
3 0 2 6 -4 13 -10 12 -23 35 -97 172 -41 76 -84 155 -123 225 -13 25 -40 74
-59 110 -20 36 -46 83 -58 105 -12 22 -44 81 -70 130 -26 50 -56 104 -65 120
-10 17 -33 59 -52 95 -65 119 -95 175 -115 210 -11 19 -39 71 -63 115 -23 44
-55 103 -70 130 -15 28 -44 82 -65 120 -72 134 -108 200 -115 210 -4 6 -33 60
-65 120 -32 61 -67 122 -77 137 -11 16 -16 28 -12 28 3 0 2 6 -4 13 -5 6 -25
39 -43 72 -18 33 -41 74 -51 90 -10 17 -20 37 -24 45 -3 8 -9 22 -14 30 -5 8
-23 42 -41 75 -17 33 -40 72 -51 88 -11 15 -17 27 -14 27 3 0 -7 21 -22 48
-30 49 -70 123 -142 257 -24 44 -90 165 -147 268 -56 104 -103 190 -103 192 0
2 -17 34 -38 72 -45 79 -89 159 -142 258 -52 96 -138 255 -182 335 -63 114
-89 161 -133 245 -26 50 -51 95 -55 100 -4 6 -33 60 -65 120 -32 61 -61 115
-65 120 -8 11 -85 152 -109 200 -8 17 -17 32 -21 35 -3 3 -17 28 -30 55 -13
28 -38 75 -56 105 -17 30 -54 99 -83 153 -28 53 -62 115 -76 137 -14 22 -22
40 -19 40 4 0 0 8 -8 18 -8 9 -24 35 -35 57 -11 22 -30 57 -42 78 -12 22 -42
78 -68 125 -25 48 -53 101 -63 117 -10 17 -37 66 -60 110 -24 44 -62 114 -85
155 -23 41 -61 111 -85 155 -24 44 -57 105 -73 135 -17 30 -46 84 -65 120 -18
36 -38 72 -43 80 -12 19 -189 345 -209 385 -8 17 -17 32 -20 35 -6 6 -11 15
-90 165 -34 66 -66 125 -70 130 -4 6 -24 42 -44 80 -21 39 -47 88 -60 110 -22
40 -84 153 -136 250 -15 28 -36 66 -47 85 -11 19 -43 80 -73 135 -29 55 -60
114 -70 130 -10 17 -33 59 -52 95 -20 36 -48 88 -63 115 -15 28 -42 77 -60
110 -18 33 -44 81 -59 108 -14 26 -49 91 -77 145 -29 53 -61 109 -71 125 -11
15 -17 27 -13 27 3 0 -6 17 -20 37 -14 21 -25 43 -25 50 0 7 -4 13 -10 13 -5
0 -10 5 -10 11 0 5 -49 100 -110 210 -60 110 -110 202 -110 204 0 2 -16 32
-36 67 -20 34 -54 97 -76 138 -23 41 -53 98 -68 125 -39 70 -128 233 -185 340
-27 50 -59 108 -72 130 -12 22 -29 54 -37 70 -8 17 -30 57 -49 90 -18 33 -49
89 -67 125 -19 36 -37 67 -40 70 -3 3 -13 21 -22 40 -9 19 -36 69 -58 110 -23
41 -62 113 -87 160 -26 47 -55 101 -66 120 -11 19 -33 59 -48 88 -16 28 -43
78 -61 110 -17 31 -38 71 -46 87 -8 17 -24 42 -34 58 -11 15 -16 27 -13 27 3
0 -3 13 -14 29 -12 16 -21 31 -21 34 0 3 -17 36 -38 74 -22 37 -57 102 -79
143 -22 41 -63 116 -90 165 -27 50 -68 124 -90 165 -23 41 -54 100 -71 130
-16 30 -41 75 -54 100 -14 25 -45 81 -68 125 -23 44 -53 98 -65 120 -12 22
-38 69 -58 105 -19 36 -46 85 -60 110 -30 56 -78 143 -127 235 -20 39 -46 86
-57 105 -11 19 -39 71 -63 115 -23 44 -46 85 -50 90 -4 6 -33 60 -65 120 -32
61 -61 115 -65 120 -8 11 -75 137 -131 245 -19 36 -36 67 -40 70 -3 3 -13 21
-22 40 -10 19 -28 53 -40 75 -50 88 -114 207 -212 390 -26 50 -51 95 -55 100
-4 6 -27 46 -50 90 -66 123 -111 205 -142 258 -15 26 -25 47 -21 47 3 0 -1 8
-9 18 -8 9 -22 31 -30 47 -14 29 -66 125 -116 215 -14 25 -32 59 -40 75 -8 17
-24 42 -34 58 -11 15 -16 27 -13 27 3 0 -2 12 -13 28 -10 15 -41 68 -67 117
-26 50 -62 115 -78 145 -17 30 -48 89 -70 130 -21 41 -43 79 -47 83 -4 5 7 45
25 90 17 45 32 85 33 90 1 12 13 71 18 87 3 14 106 15 911 14 500 -1 911 -2
914 -3z m8068 -51 c10 -51 16 -89 26 -165 2 -16 4 -30 5 -30 1 0 3 -22 5 -50
2 -27 7 -75 10 -105 26 -275 27 -878 0 -1125 -3 -22 -7 -67 -10 -100 -3 -33
-7 -71 -9 -85 -3 -14 -7 -43 -10 -65 -4 -22 -9 -53 -13 -70 -3 -16 -7 -41 -9
-55 -1 -14 -3 -25 -4 -25 -1 0 -3 -11 -6 -25 -2 -14 -15 -69 -29 -122 -108
-412 -305 -627 -559 -611 -175 11 -322 118 -436 318 -73 126 -70 111 -70 387
-1 139 -1 260 -1 268 0 11 -1 559 0 960 0 8 0 182 1 385 l1 370 548 0 549 0
11 -55z m-3055 -1763 c0 -398 -2 -425 -20 -457 -10 -19 -22 -37 -25 -40 -3 -3
-8 -12 -12 -22 -17 -48 -132 -203 -202 -275 -61 -62 -98 -90 -149 -114 -259
-121 -481 -38 -559 207 -35 110 -54 343 -36 439 4 22 10 54 13 70 24 139 88
253 199 357 34 32 65 58 70 58 4 0 25 11 47 25 127 80 418 159 640 173 l35 3
-1 -424z m9374 -12 c-2 -279 -7 -438 -13 -443 -6 -4 -19 -25 -30 -47 -43 -86
-144 -224 -217 -297 -81 -81 -180 -138 -263 -153 -224 -39 -371 43 -438 245
-32 96 -38 137 -42 285 -2 106 2 158 19 255 8 44 48 144 80 195 33 54 120 146
176 186 83 59 268 136 369 154 19 3 38 8 41 10 4 3 25 7 46 10 22 4 46 8 54
10 8 2 42 7 75 11 33 3 61 7 63 8 1 2 20 3 42 4 l41 2 -3 -435z"/>
</g>
</svg>
